<svg width="512" height="512" viewBox="0 0 512 512" fill="none" xmlns="http://www.w3.org/2000/svg">
<rect width="512" height="512" fill="#202938"/>
<rect width="512" height="512" fill="#0A192F"/>
<path d="M41 374.401V137.607L255.644 18.652L470.288 137.607V374.401L255.644 493.357L41 374.401Z" fill="#0A192F"/>
<path d="M292.774 294.613H218.312L201.588 341H177.418L245.289 163.266H265.797L333.79 341H309.742L292.774 294.613ZM225.392 275.326H285.816L255.543 192.196L225.392 275.326Z" fill="#44DBB2"/>
<path d="M255.955 37.303L454.288 147.222V364.777L255.955 474.697L57.622 364.778V147.222L255.955 37.303ZM255.955 0L25 128V384L255.955 512L486.91 384V128L255.955 0Z" fill="#44DBB2"/>
</svg>
